<?xml version="1.0" encoding="UTF-8" standalone="no"?>
<svg
   version="1.0"
   width="640pt"
   height="750pt"
   viewBox="0 0 640 750"
   preserveAspectRatio="xMidYMid meet"
   id="svg30"
   sodipodi:docname="obs_logo_small.svg"
   inkscape:version="1.1.2 (0a00cf5339, 2022-02-04)"
   xmlns:inkscape="http://www.inkscape.org/namespaces/inkscape"
   xmlns:sodipodi="http://sodipodi.sourceforge.net/DTD/sodipodi-0.dtd"
   xmlns="http://www.w3.org/2000/svg"
   xmlns:svg="http://www.w3.org/2000/svg">
  <defs
     id="defs34" />
  <sodipodi:namedview
     id="namedview32"
     pagecolor="#ffffff"
     bordercolor="#666666"
     borderopacity="1.0"
     inkscape:pageshadow="2"
     inkscape:pageopacity="0.0"
     inkscape:pagecheckerboard="0"
     inkscape:document-units="pt"
     showgrid="false"
     inkscape:zoom="0.30102539"
     inkscape:cx="272.40227"
     inkscape:cy="262.43633"
     inkscape:window-width="1920"
     inkscape:window-height="1000"
     inkscape:window-x="0"
     inkscape:window-y="0"
     inkscape:window-maximized="1"
     inkscape:current-layer="svg30" />
  <metadata
     id="metadata2">
Created by potrace 1.16, written by Peter Selinger 2001-2019
</metadata>
  <g
     transform="matrix(0.1,0,0,-0.1,-175.00456,914.29205)"
     fill="#000000"
     stroke="none"
     id="g28"
     inkscape:export-filename="/home/vkudak/Завантаження/g28.png"
     inkscape:export-xdpi="96"
     inkscape:export-ydpi="96"
     style="fill:#000000">
    <path
       d="m 4337,8907 c -128,-123 -317,-303 -422,-401 -258,-242 -265,-249 -265,-286 0,-27 20,-51 148,-175 l 147,-144 -57,-57 c -32,-30 -58,-59 -58,-63 0,-3 26,-35 58,-71 l 58,-64 69,64 68,64 143,-147 c 131,-134 147,-147 179,-147 42,0 49,6 550,477 235,220 351,336 353,352 7,46 -10,73 -125,193 -64,68 -206,222 -316,343 -228,252 -261,285 -282,285 -9,0 -120,-100 -248,-223 z m 337,-181 c 47,-54 86,-102 86,-105 0,-6 -100,-105 -168,-166 l -32,-29 -105,104 -105,105 107,107 c 84,84 110,105 119,95 7,-6 51,-57 98,-111 z m -252,-427 c -37,-37 -268,-239 -272,-239 -3,0 -50,45 -105,100 l -100,101 135,129 135,128 107,-106 c 59,-58 104,-110 100,-113 z m 626,12 c 2,-6 -86,-88 -170,-159 l -31,-26 -91,99 -92,98 99,93 99,92 92,-95 c 50,-52 92,-98 94,-102 z m -340,-312 c -2,-4 -61,-59 -133,-123 l -130,-116 -93,93 c -51,50 -91,97 -90,103 2,6 62,63 133,128 l 130,117 93,-97 c 51,-54 91,-101 90,-105 z"
       id="path4"
       style="fill:#000000" />
    <path
       d="m 7375,8094 c -33,-152 -80,-238 -152,-284 -40,-26 -68,-38 -173,-76 -8,-3 17,-16 58,-29 119,-38 176,-87 227,-197 14,-29 30,-79 36,-110 6,-32 14,-58 18,-58 4,0 12,28 18,62 31,162 145,287 286,313 20,4 37,10 37,14 0,3 -31,17 -69,30 -135,46 -213,131 -251,275 -12,44 -24,83 -26,85 -1,2 -6,-10 -9,-25 z"
       id="path6"
       style="fill:#000000" />
    <path
       d="m 3031,8100 c -51,-12 -112,-60 -145,-114 -37,-60 -45,-139 -22,-217 28,-95 22,-97 163,42 70,69 154,147 186,173 31,27 57,52 57,56 0,5 -24,20 -52,34 -59,28 -136,39 -187,26 z"
       id="path8"
       style="fill:#000000" />
    <path
       d="m 3365,7991 c -23,-10 -121,-95 -226,-194 -221,-208 -245,-248 -202,-330 23,-45 582,-617 603,-617 12,0 34,30 65,85 97,172 250,318 410,391 30,14 55,32 55,39 0,8 -75,94 -167,193 -93,98 -221,235 -286,305 -91,97 -127,129 -155,137 -48,13 -50,13 -97,-9 z"
       id="path10"
       style="fill:#000000" />
    <path
       d="m 5598,7829 c -21,-12 -24,-52 -5,-66 6,-5 48,-17 92,-27 283,-64 624,-203 869,-354 1075,-663 1566,-1850 1261,-3048 -72,-283 -188,-535 -380,-829 -40,-60 -77,-120 -84,-132 -11,-23 -16,-353 -5,-353 35,0 188,184 317,380 342,523 503,1098 484,1734 -8,269 -38,462 -113,716 -127,436 -360,825 -694,1160 -416,417 -955,709 -1475,798 -161,28 -246,34 -267,21 z"
       id="path12"
       style="fill:#000000" />
    <path
       d="m 2602,7318 c -32,-26 -536,-507 -789,-754 -86,-83 -87,-79 139,-317 560,-589 517,-547 554,-547 39,0 39,0 274,220 647,604 634,591 611,653 -6,14 -63,83 -128,153 -65,69 -121,132 -125,139 -5,9 9,28 40,57 26,23 51,49 56,56 9,15 -102,142 -124,142 -8,0 -35,-21 -61,-46 l -46,-45 -138,151 c -76,83 -146,155 -156,160 -32,18 -66,11 -107,-22 z m 117,-367 101,-108 -121,-113 -121,-113 -101,101 -102,102 120,120 c 66,66 120,120 121,120 1,0 47,-49 103,-109 z m 309,-340 102,-109 -117,-106 -117,-107 -103,103 c -57,57 -102,106 -101,110 3,6 228,218 233,218 1,0 47,-49 103,-109 z m -681,-18 99,-108 -27,-25 c -16,-14 -64,-58 -107,-97 l -80,-73 -97,106 -98,105 99,100 c 54,54 101,99 105,99 3,0 51,-48 106,-107 z m 364,-476 c -31,-28 -83,-77 -116,-109 l -60,-58 -100,112 -99,112 109,103 110,103 106,-106 106,-106 z"
       id="path14"
       style="fill:#000000" />
    <path
       d="m 4250,7305 c -152,-31 -269,-90 -382,-195 -180,-166 -274,-359 -266,-550 4,-101 23,-136 94,-170 39,-19 57,-22 137,-18 135,7 260,61 408,179 l 26,21 63,-46 c 34,-25 68,-46 75,-46 25,0 45,31 45,71 0,31 -8,47 -35,78 -19,21 -35,42 -35,47 0,5 16,29 36,54 96,121 164,280 164,386 0,166 -116,232 -330,189 z m 217,-229 c -8,-82 -67,-213 -137,-306 -18,-24 -19,-24 -40,-5 -12,11 -37,41 -56,67 l -35,47 128,125 c 70,69 132,126 137,126 5,0 6,-24 3,-54 z m -338,-388 64,-51 -29,-24 c -95,-78 -244,-136 -335,-131 l -57,3 141,127 c 78,70 144,127 147,128 3,0 34,-23 69,-52 z"
       id="path16"
       style="fill:#000000" />
    <path
       d="m 5159,6700 c -114,-20 -219,-122 -219,-214 0,-23 5,-25 58,-30 309,-31 472,-85 644,-215 337,-255 558,-762 585,-1340 l 6,-144 -39,6 c -21,4 -58,7 -80,7 h -41 l -7,103 c -38,552 -194,946 -480,1214 -304,284 -721,329 -1218,131 -233,-93 -422,-219 -613,-412 -193,-193 -333,-404 -430,-645 -78,-195 -135,-440 -135,-582 v -66 l -47,-18 c -102,-39 -174,-105 -194,-179 -6,-23 -9,-105 -7,-195 3,-151 4,-158 33,-210 33,-59 95,-119 167,-159 l 48,-27 v -373 c 0,-296 -3,-372 -12,-366 -79,46 -304,248 -409,367 -519,584 -738,1333 -615,2100 15,92 8,120 -27,115 -29,-4 -43,-37 -72,-165 -45,-195 -58,-324 -59,-543 0,-276 31,-486 108,-737 170,-553 575,-1118 1011,-1413 72,-48 75,-52 75,-89 0,-38 0,-39 -47,-46 -111,-16 -197,-70 -222,-138 -7,-17 -11,-132 -11,-297 v -268 l -34,-6 c -60,-11 -257,-76 -358,-118 -99,-41 -144,-73 -117,-83 8,-3 1258,-4 2778,-3 2225,3 2765,5 2769,16 8,24 -260,136 -435,181 l -42,11 -3,283 c -3,253 -5,286 -21,311 -29,44 -103,84 -189,103 l -78,16 v 571 571 l 59,29 c 76,37 153,105 189,164 26,45 27,54 30,198 2,93 -1,167 -8,193 -13,49 -76,123 -119,141 -28,11 -29,13 -35,113 -23,338 -145,751 -309,1041 -236,418 -648,776 -1100,955 -251,100 -588,165 -728,141 z m 993,-537 c 328,-197 609,-538 753,-913 65,-168 143,-478 159,-634 6,-53 5,-58 -11,-51 -36,16 -272,73 -369,90 l -100,18 -12,131 c -28,320 -115,670 -235,941 -71,160 -191,359 -266,439 -45,48 -26,43 81,-21 z m -1152,-24 c 35,-5 66,-11 67,-13 2,-2 -12,-36 -31,-77 -134,-290 -223,-716 -252,-1196 l -6,-111 -117,-6 c -119,-6 -530,-35 -612,-43 l -46,-5 9,74 c 26,228 94,467 188,665 154,323 376,566 630,688 83,39 80,39 170,24 z m 322,-145 c 159,-130 296,-346 378,-593 59,-177 87,-336 106,-585 l 6,-89 -83,6 c -46,4 -236,7 -421,7 h -336 l 4,98 c 17,358 66,664 149,928 43,138 104,284 117,284 6,0 42,-25 80,-56 z m -969,-26 c -257,-266 -459,-705 -518,-1129 -8,-63 -18,-128 -20,-144 l -5,-31 -173,-31 c -95,-18 -181,-35 -191,-39 -17,-6 -18,-3 -11,47 46,361 202,710 438,980 83,95 200,203 283,262 62,44 224,137 239,137 5,0 -14,-24 -42,-52 z M 5790,4510 c 648,-36 1143,-123 1394,-246 79,-38 111,-78 119,-144 4,-30 5,-55 4,-57 -2,-1 -40,13 -85,32 -386,163 -1091,249 -2032,248 -528,0 -903,-20 -1280,-68 -305,-40 -615,-117 -762,-191 -26,-13 -50,-24 -53,-24 -3,0 -5,27 -5,60 0,51 4,64 29,93 126,142 736,260 1556,300 162,8 952,6 1115,-3 z m -64,-480 c 233,-13 499,-44 699,-81 88,-16 161,-29 163,-29 1,0 2,-282 2,-626 v -626 l -27,6 c -87,16 -325,37 -663,58 -263,16 -1194,15 -1485,-1 -282,-15 -732,-56 -905,-81 -74,-11 -138,-20 -142,-20 -5,0 -8,271 -8,603 v 603 l 173,42 c 94,23 206,48 247,56 202,40 649,90 880,99 200,8 908,6 1066,-3 z m 139,-1510 c 280,-16 529,-40 698,-66 l 37,-6 v -79 c 0,-57 -4,-79 -12,-79 -7,0 -83,7 -168,15 -374,36 -680,48 -1250,49 -553,0 -788,-7 -1210,-40 -230,-17 -556,-57 -701,-84 -57,-11 -106,-20 -109,-20 -3,0 -3,29 -2,65 3,60 6,66 35,84 119,73 780,148 1537,175 174,6 973,-3 1145,-14 z"
       id="path18"
       style="fill:#000000" />
    <path
       d="m 5022,3714 c -53,-26 -83,-58 -118,-124 -17,-31 -19,-65 -22,-327 l -3,-293 h 265 266 l -7,298 c -6,321 -6,321 -66,388 -73,84 -212,110 -315,58 z"
       id="path20"
       style="fill:#000000" />
    <path
       d="m 4003,3675 c -52,-26 -90,-70 -117,-135 -11,-27 -15,-101 -17,-325 l -4,-290 h 70 c 82,1 386,24 397,31 5,3 8,123 8,268 0,294 -7,339 -63,403 -66,75 -179,95 -274,48 z"
       id="path22"
       style="fill:#000000" />
    <path
       d="m 6052,3679 c -24,-12 -54,-36 -67,-53 -51,-67 -53,-83 -56,-384 -1,-155 0,-284 2,-286 8,-9 438,-39 455,-32 15,6 16,30 10,294 l -7,287 -32,65 c -45,90 -91,122 -189,127 -61,4 -80,1 -116,-18 z"
       id="path24"
       style="fill:#000000" />
    <path
       d="m 2621,5137 c -2,-34 -41,-131 -63,-155 -27,-28 -71,-53 -113,-62 -26,-6 -27,-8 -10,-14 95,-33 155,-91 176,-170 6,-23 13,-48 16,-56 3,-8 11,9 19,39 26,99 75,154 164,185 25,8 36,15 25,16 -37,1 -122,48 -148,81 -14,19 -34,61 -45,94 -12,33 -21,52 -21,42 z"
       id="path26"
       style="fill:#000000" />
  </g>
  <path
     style="fill:#000000;stroke-width:5.31517"
     d="m 198.31152,262.95898 c -27.89276,-28.2406 -38.86045,-41.59756 -38.87041,-47.3382 -0.01,-5.67279 7.74007,-15.42294 26.66468,-33.54678 14.67321,-14.05232 29.99615,-26.60263 34.05098,-27.88959 6.30078,-1.99978 13.04809,3.61878 46.41885,38.65357 21.47554,22.54642 39.04644,41.85751 39.04644,42.91356 0,1.05604 -5.34564,4.7989 -11.87919,8.31745 -13.52453,7.28344 -46.34323,41.39711 -49.55209,51.50733 -1.17372,3.69807 -3.234,6.72376 -4.57838,6.72376 -1.3444,0 -19.92979,-17.70349 -41.30088,-39.3411 z"
     id="path1076"
     transform="scale(0.75)" />
</svg>
